<svg xmlns="http://www.w3.org/2000/svg" viewBox="0 0 960 680" fill="none">
  <defs>
    <linearGradient id="bg" x1="70" y1="24" x2="906" y2="680" gradientUnits="userSpaceOnUse">
      <stop stop-color="#E6E9DF"/><stop offset="1" stop-color="#B5C1B5"/>
    </linearGradient>
    <linearGradient id="wood" x1="305" y1="214" x2="736" y2="494" gradientUnits="userSpaceOnUse">
      <stop stop-color="#C49360"/><stop offset=".54" stop-color="#8C6342"/><stop offset="1" stop-color="#574331"/>
    </linearGradient>
    <linearGradient id="end" x1="292" y1="236" x2="408" y2="378" gradientUnits="userSpaceOnUse">
      <stop stop-color="#F3E5CD"/><stop offset="1" stop-color="#CDB596"/>
    </linearGradient>
    <filter id="shadow" x="130" y="150" width="725" height="415" color-interpolation-filters="sRGB" filterUnits="userSpaceOnUse"><feGaussianBlur stdDeviation="20"/></filter>
  </defs>
  <path fill="url(#bg)" d="M0 0h960v680H0z"/>
  <circle cx="794" cy="122" r="108" fill="#F7F6EF" fill-opacity=".52"/>
  <path d="M0 514c169-79 310-46 446-3 180 57 324 57 514-37v206H0V514Z" fill="#596A58" fill-opacity=".2"/>
  <ellipse cx="489" cy="474" fill="#344339" fill-opacity=".28" filter="url(#shadow)" rx="325" ry="52"/>
  <g stroke="#60482F" stroke-width="7">
    <rect x="243" y="314" width="477" height="85" rx="42" fill="url(#wood)" transform="rotate(-7 243 314)"/>
    <rect x="304" y="229" width="464" height="87" rx="43" fill="url(#wood)" transform="rotate(8 304 229)"/>
    <rect x="264" y="419" width="458" height="81" rx="40" fill="url(#wood)" transform="rotate(-2 264 419)"/>
  </g>
  <g stroke="#D3A875" stroke-linecap="round" stroke-width="4" opacity=".88">
    <path d="m401 280 143-20m-72 43 201-18m-191 87 178-20m-114 44 177-16m-190 90 160-11"/>
    <path d="m594 235 43 12m-230 66 34 7m230 87 34 7m-301 73 41-2"/>
  </g>
  <g stroke="#7B6045" stroke-width="6">
    <ellipse cx="279" cy="352" fill="url(#end)" rx="51" ry="42" transform="rotate(-7 279 352)"/>
    <ellipse cx="342" cy="257" fill="url(#end)" rx="51" ry="42" transform="rotate(8 342 257)"/>
    <ellipse cx="296" cy="440" fill="url(#end)" rx="49" ry="40" transform="rotate(-2 296 440)"/>
  </g>
  <g stroke="#A58864" stroke-linecap="round" stroke-width="4">
    <path d="M261 350c12-15 30-18 45-8m-39 18c11-5 20-4 31 0m31-103c12-13 30-17 45-7m-41 18c10-5 22-4 31 0m-51 188c11-12 27-14 40-7"/>
  </g>
  <rect x="48" y="47" width="196" height="38" rx="19" fill="#FBF7EF" fill-opacity=".9"/>
  <text x="70" y="72" fill="#4B5D43" font-family="Arial,sans-serif" font-size="15" font-weight="700" letter-spacing="2">VISUEL PROTOTYPE</text>
  <text x="62" y="597" fill="#3F4135" font-family="Georgia,serif" font-size="58" font-weight="700">Frêne</text>
  <text x="66" y="630" fill="#56634F" font-family="Arial,sans-serif" font-size="17" letter-spacing="3">POLYVALENT · CHALEUR EFFICACE</text>
</svg>
